<svg xmlns="http://www.w3.org/2000/svg" fill="none" viewBox="0 0 99 33">
  <path fill="#1E293B" d="M4.832 14.612v11.965H0V10.673h4.516l.316 3.94Zm4.587-4.056-.086 4.6c-.19-.02-.449-.044-.774-.073a9.338 9.338 0 0 0-.817-.044c-.564 0-1.051.068-1.462.205a2.458 2.458 0 0 0-1.004.588 2.32 2.32 0 0 0-.574.97 4.581 4.581 0 0 0-.157 1.367l-.875-.588c0-1.068.1-2.038.301-2.91.21-.882.507-1.641.89-2.278.382-.647.845-1.142 1.39-1.485a3.303 3.303 0 0 1 1.835-.529c.239 0 .473.015.703.044.238.03.449.074.63.133Zm9.427 12.023v-6.556c0-.45-.062-.838-.186-1.16a1.524 1.524 0 0 0-.588-.75c-.268-.187-.626-.28-1.075-.28-.363 0-.674.064-.932.191a1.297 1.297 0 0 0-.588.574c-.134.254-.2.578-.2.97h-4.832c0-.735.157-1.416.473-2.043a5.023 5.023 0 0 1 1.376-1.661c.602-.47 1.32-.833 2.15-1.088.842-.265 1.778-.397 2.81-.397 1.234 0 2.333.21 3.298.632.975.421 1.745 1.054 2.308 1.896.564.833.846 1.882.846 3.146v6.511c0 1.039.058 1.828.172 2.367.115.529.277.994.488 1.396v.25H19.52c-.23-.49-.401-1.088-.516-1.793a15.15 15.15 0 0 1-.158-2.205Zm.588-5.718.029 2.646h-2.137c-.449 0-.831.063-1.146.19a1.93 1.93 0 0 0-.746.53c-.182.216-.316.46-.401.735a3.215 3.215 0 0 0-.115.867c0 .294.067.559.2.794.144.225.335.402.574.53.239.126.507.19.803.19.535 0 .99-.103 1.362-.308.382-.216.674-.476.874-.78.201-.303.301-.587.301-.852l1.061 2.028c-.19.392-.41.79-.66 1.19a5.15 5.15 0 0 1-.902 1.118 4.291 4.291 0 0 1-1.305.823c-.516.206-1.142.309-1.878.309a5.808 5.808 0 0 1-2.638-.603 4.923 4.923 0 0 1-1.907-1.675c-.478-.726-.717-1.558-.717-2.5 0-.822.144-1.557.43-2.204a4.296 4.296 0 0 1 1.334-1.646c.592-.451 1.347-.794 2.265-1.03.918-.234 1.998-.352 3.24-.352h2.079ZM39.577 3v23.577h-4.846V3h4.846Zm8.086-3v26.577h-4.846V0h4.846Zm7.742 24.71 4.014-14.037h5.19l-6.236 18.27c-.134.402-.31.833-.53 1.294-.22.47-.522.916-.904 1.337-.382.422-.874.765-1.477 1.03-.592.264-1.328.396-2.207.396-.469 0-.813-.025-1.033-.074-.21-.039-.535-.112-.974-.22v-3.542h.63c.516 0 .927-.054 1.233-.162.316-.108.555-.264.717-.47a2.23 2.23 0 0 0 .401-.75l1.176-3.072Zm-1.018-14.037L57.441 21.8l.53 5.247h-3.24l-5.52-16.374h5.176Zm9.391 13.581c0-.705.248-1.293.745-1.763.497-.48 1.138-.72 1.922-.72.793 0 1.433.24 1.92.72.498.47.746 1.058.746 1.763 0 .706-.248 1.299-.745 1.779-.488.47-1.128.705-1.921.705-.784 0-1.425-.235-1.922-.705-.497-.48-.745-1.073-.745-1.779Zm13.125-1.204c.45 0 .832-.084 1.147-.25a1.73 1.73 0 0 0 .731-.736c.172-.323.254-.71.244-1.16h4.545c.01 1.195-.277 2.243-.86 3.145-.574.891-1.357 1.587-2.351 2.087-.985.49-2.099.735-3.341.735-1.214 0-2.275-.201-3.183-.603a6.382 6.382 0 0 1-2.28-1.705 7.57 7.57 0 0 1-1.361-2.572c-.297-.98-.445-2.043-.445-3.19v-.338c0-1.146.148-2.21.445-3.19.305-.989.76-1.846 1.362-2.572a6.189 6.189 0 0 1 2.265-1.705c.908-.411 1.964-.617 3.168-.617 1.29 0 2.428.25 3.412.75a5.571 5.571 0 0 1 2.337 2.175c.564.95.841 2.102.832 3.454h-4.545c.01-.48-.062-.911-.215-1.293a1.973 1.973 0 0 0-.717-.912c-.315-.235-.721-.352-1.218-.352s-.899.112-1.205.338c-.305.225-.54.539-.702.94a5.373 5.373 0 0 0-.316 1.353c-.047.51-.071 1.053-.071 1.631v.338c0 .588.024 1.142.071 1.661.058.51.168.96.33 1.352.163.383.397.686.703.912.305.215.712.323 1.218.323Zm7.129-4.263v-.309c0-1.166.163-2.24.488-3.219.325-.99.803-1.847 1.433-2.572a6.444 6.444 0 0 1 2.337-1.69c.927-.412 1.998-.618 3.212-.618 1.223 0 2.299.206 3.226.617.936.402 1.72.966 2.35 1.69.632.726 1.11 1.583 1.434 2.573.326.98.488 2.053.488 3.219v.309c0 1.156-.162 2.229-.487 3.219a7.55 7.55 0 0 1-1.434 2.572 6.445 6.445 0 0 1-2.337 1.69c-.927.402-1.998.603-3.212.603-1.213 0-2.289-.201-3.225-.603a6.418 6.418 0 0 1-2.352-1.69 7.55 7.55 0 0 1-1.433-2.572c-.325-.99-.488-2.063-.488-3.22Zm4.832-.309v.309c0 .597.043 1.156.129 1.675.086.52.23.975.43 1.367.2.382.473.681.817.897.344.215.774.323 1.29.323.507 0 .928-.108 1.262-.323.344-.216.617-.515.817-.897a4.64 4.64 0 0 0 .43-1.367c.087-.52.13-1.078.13-1.675v-.309c0-.578-.043-1.122-.13-1.632a4.654 4.654 0 0 0-.43-1.367 2.351 2.351 0 0 0-.817-.94c-.344-.226-.774-.338-1.29-.338-.507 0-.932.112-1.276.338a2.395 2.395 0 0 0-.803.94 4.65 4.65 0 0 0-.43 1.367 9.796 9.796 0 0 0-.13 1.632ZM31.491 6v20.577h-4.846V6h4.846Z"/>
</svg>
